<svg width="1460" height="2475" xmlns="http://www.w3.org/2000/svg" xmlns:xlink="http://www.w3.org/1999/xlink" xml:space="preserve" overflow="hidden"><defs><clipPath id="clip0"><rect x="638" y="0" width="1460" height="2475"/></clipPath><clipPath id="clip1"><rect x="709" y="71" width="92" height="92"/></clipPath><clipPath id="clip2"><rect x="709" y="71" width="92" height="92"/></clipPath><clipPath id="clip3"><rect x="709" y="71" width="92" height="92"/></clipPath><clipPath id="clip4"><rect x="704" y="390" width="92" height="92"/></clipPath><clipPath id="clip5"><rect x="704" y="390" width="92" height="92"/></clipPath><clipPath id="clip6"><rect x="704" y="390" width="92" height="92"/></clipPath></defs><g clip-path="url(#clip0)" transform="translate(-638 0)"><rect x="638" y="0" width="1460" height="2475" fill="#FFFFFF"/><path d="M754.5 529.5 754.5 1943.31" stroke="#D9D9D9" stroke-width="6.875" stroke-miterlimit="8" stroke-dasharray="6.875 6.875" fill="none" fill-rule="evenodd"/><path d="M667 2006.5C667 1959.83 704.832 1922 751.5 1922 798.168 1922 836 1959.83 836 2006.5 836 2053.17 798.168 2091 751.5 2091 704.832 2091 667 2053.17 667 2006.5Z" stroke="#FFFFFF" stroke-width="13.75" stroke-miterlimit="8" fill="#FFFFFF" fill-rule="evenodd"/><path d="M669 748.5C669 701.832 706.832 664 753.5 664 800.168 664 838 701.832 838 748.5 838 795.168 800.168 833 753.5 833 706.832 833 669 795.168 669 748.5Z" stroke="#FFFFFF" stroke-width="13.75" stroke-miterlimit="8" fill="#FFFFFF" fill-rule="evenodd"/><path d="M670 1071.5C670 1024.83 707.832 987 754.5 987 801.168 987 839 1024.83 839 1071.5 839 1118.17 801.168 1156 754.5 1156 707.832 1156 670 1118.17 670 1071.5Z" stroke="#FFFFFF" stroke-width="13.75" stroke-miterlimit="8" fill="#FFFFFF" fill-rule="evenodd"/><path d="M0 0 0.000360892 486.147" stroke="#4E5153" stroke-width="8.02083" stroke-miterlimit="8" fill="none" fill-rule="evenodd" transform="matrix(-1 0 0 1 754 178)"/><path d="M671 1390.5C671 1343.83 708.832 1306 755.5 1306 802.168 1306 840 1343.83 840 1390.5 840 1437.17 802.168 1475 755.5 1475 708.832 1475 671 1437.17 671 1390.5Z" stroke="#FFFFFF" stroke-width="13.75" stroke-miterlimit="8" fill="#FFFFFF" fill-rule="evenodd"/><path d="M670 1082.5C670 1035.83 707.608 998 754 998 800.392 998 838 1035.83 838 1082.5 838 1129.17 800.392 1167 754 1167 707.608 1167 670 1129.17 670 1082.5Z" stroke="#FFFFFF" stroke-width="13.75" stroke-miterlimit="8" fill="#FFFFFF" fill-rule="evenodd"/><path d="M661 439C661 389.294 698.832 349 745.5 349 792.168 349 830 389.294 830 439 830 488.706 792.168 529 745.5 529 698.832 529 661 488.706 661 439Z" stroke="#FFFFFF" stroke-width="13.75" stroke-miterlimit="8" fill="#FFFFFF" fill-rule="evenodd"/><path d="M669 115.5C669 68.8319 706.832 30.9999 753.5 30.9999 800.168 30.9999 838 68.8319 838 115.5 838 162.168 800.168 200 753.5 200 706.832 200 669 162.168 669 115.5Z" stroke="#FFFFFF" stroke-width="13.75" stroke-miterlimit="8" fill="#FFFFFF" fill-rule="evenodd"/><path d="M671 1700.5C671 1653.83 708.832 1616 755.5 1616 802.168 1616 840 1653.83 840 1700.5 840 1747.17 802.168 1785 755.5 1785 708.832 1785 671 1747.17 671 1700.5Z" stroke="#FFFFFF" stroke-width="13.75" stroke-miterlimit="8" fill="#FFFFFF" fill-rule="evenodd"/><path d="M690 113C690 77.1016 719.101 48.0001 755 48.0001 790.898 48.0001 820 77.1016 820 113 820 148.899 790.898 178 755 178 719.101 178 690 148.899 690 113Z" stroke="#4E5153" stroke-width="13.75" stroke-miterlimit="8" fill="#FFFFFF" fill-rule="evenodd"/><path d="M689 433C689 397.102 718.101 368 754 368 789.899 368 819 397.102 819 433 819 468.899 789.899 498 754 498 718.101 498 689 468.899 689 433Z" stroke="#4E5153" stroke-width="13.75" stroke-miterlimit="8" fill="none" fill-rule="evenodd"/><path d="M689 2008C689 1972.1 718.101 1943 754 1943 789.899 1943 819 1972.1 819 2008 819 2043.9 789.899 2073 754 2073 718.101 2073 689 2043.9 689 2008Z" stroke="#7F7F7F" stroke-width="13.75" stroke-miterlimit="8" fill="#FFFFFF" fill-rule="evenodd"/><text fill="#4E5153" font-family="Lato,Lato_MSFontService,sans-serif" font-weight="400" font-size="64" transform="matrix(1 0 0 1 873.13 131)">Produkt im Geschäft<tspan font-size="64" x="0" y="325">Begutachtung</tspan></text><path d="M689 1071C689 1035.1 718.101 1006 754 1006 789.899 1006 819 1035.1 819 1071 819 1106.9 789.899 1136 754 1136 718.101 1136 689 1106.9 689 1071Z" stroke="#7F7F7F" stroke-width="13.75" stroke-miterlimit="8" fill="#FFFFFF" fill-rule="evenodd"/><text fill="#4E5153" font-family="Lato,Lato_MSFontService,sans-serif" font-weight="400" font-size="64" transform="matrix(1 0 0 1 873.13 1095)">Reparatur in Bearbeitung<tspan font-size="64" x="0" y="935">Zur Abholung/Versand bereit</tspan></text><path d="M689 1390C689 1354.1 718.101 1325 754 1325 789.899 1325 819 1354.1 819 1390 819 1425.9 789.899 1455 754 1455 718.101 1455 689 1425.9 689 1390Z" stroke="#7F7F7F" stroke-width="13.75" stroke-miterlimit="8" fill="#FFFFFF" fill-rule="evenodd"/><text fill="#4E5153" font-family="Lato,Lato_MSFontService,sans-serif" font-weight="400" font-size="64" transform="matrix(1 0 0 1 873.13 1414)">Produkt in der Qualitätskontrolle</text><path d="M689 1699C689 1663.1 718.101 1634 754 1634 789.899 1634 819 1663.1 819 1699 819 1734.9 789.899 1764 754 1764 718.101 1764 689 1734.9 689 1699Z" stroke="#7F7F7F" stroke-width="13.75" stroke-miterlimit="8" fill="#FFFFFF" fill-rule="evenodd"/><text fill="#4E5153" font-family="Lato,Lato_MSFontService,sans-serif" font-weight="400" font-size="64" transform="matrix(1 0 0 1 873.13 1723)">Auftrag abgeschlossen</text><path d="M686 752C686 716.102 715.102 687 751 687 786.899 687 816 716.102 816 752 816 787.899 786.899 817 751 817 715.102 817 686 787.899 686 752Z" stroke="#EA1779" stroke-width="13.75" stroke-miterlimit="8" fill="#FFFFFF" fill-rule="evenodd"/><text fill="#EA1779" font-family="Lato,Lato_MSFontService,sans-serif" font-weight="700" font-size="64" transform="matrix(1 0 0 1 870.507 775)">Angebot erhalten</text><g clip-path="url(#clip1)"><g clip-path="url(#clip2)"><g clip-path="url(#clip3)"><path d="M791.616 86.9769 743.082 132.856 719.763 108.969 711.706 116.647 742.703 148.497 750.855 140.913 799.294 94.9394Z" fill="#4E5153"/></g></g></g><g clip-path="url(#clip4)"><g clip-path="url(#clip5)"><g clip-path="url(#clip6)"><path d="M785.616 405.977 737.082 451.856 713.764 427.969 705.706 435.647 736.703 467.497 744.855 459.913 793.294 413.939Z" fill="#4E5153"/></g></g></g><path d="M699 752C699 723.281 722.281 700 751 700 779.719 700 803 723.281 803 752 803 780.719 779.719 804 751 804 722.281 804 699 780.719 699 752Z" stroke="#EA1779" stroke-width="24.0625" stroke-miterlimit="8" fill="#FFFFFF" fill-rule="evenodd"/></g></svg>